# xmcd
#
# Track frame offsets: 
#        150
#        10182
#        21870
#        34877
#        44927
#        54750
#        66012
#        78515
#        88295
#        99027
#        108735
#        116537
#        129410
#        139797
#        150955
#        163900
#        176330
#        187277
#        199510
#        210262
#
# Disc length: 2983 seconds
#
# Revision: 0
# Processed by: cddbd v1.5.2PL0 Copyright (c) Steve Scherf et al.
# Submitted via: ExactAudioCopy v1.0b3
#
DISCID=0b0ba514
DTITLE=Slim Whitman - I'm A Lonely Wanderer CD6
DYEAR=2002
DGENRE=Country
TTITLE0=There's a Time for Love
TTITLE1=Nothing New
TTITLE2=Think I'll Go Somewhere and Cry Myself to Sleep
TTITLE3=Promises
TTITLE4=Afraid
TTITLE5=What's This World A-Comin' To
TTITLE6=The One Dream
TTITLE7=You Bring Out the Best in Me
TTITLE8=Seven Roses
TTITLE9=If I Had My Life to Live Over
TTITLE10=If I Lost You
TTITLE11=Jerry
TTITLE12=Tennessee Yodel Polka
TTITLE13=Blue Eyes Crying in the Rain
TTITLE14=That's How the Yodel Was Born
TTITLE15=Die Son Skyn Weer More (Sunrise)
TTITLE16=Fluisterende Hoop (Whispering Hope)
TTITLE17=Die Son Skyn Weer More (Sunrise)
TTITLE18=Fluisterende Hoop (Whispering Hope)
TTITLE19=Way Down in Florida That's the Only Place to Be
EXTD=
EXTT0=
EXTT1=
EXTT2=
EXTT3=
EXTT4=
EXTT5=
EXTT6=
EXTT7=
EXTT8=
EXTT9=
EXTT10=
EXTT11=
EXTT12=
EXTT13=
EXTT14=
EXTT15=
EXTT16=
EXTT17=
EXTT18=
EXTT19=
PLAYORDER=
